<?xml version="1.0" standalone="no"?>
<!DOCTYPE svg PUBLIC "-//W3C//DTD SVG 20010904//EN"
 "http://www.w3.org/TR/2001/REC-SVG-20010904/DTD/svg10.dtd">
<svg version="1.0" xmlns="http://www.w3.org/2000/svg"
 width="16.000000pt" height="16.000000pt" viewBox="0 0 16.000000 16.000000"
 preserveAspectRatio="xMidYMid meet">
<metadata>
Created by potrace 1.11, written by Peter Selinger 2001-2013
</metadata>
<g transform="translate(0.000000,16.000000) scale(0.016842,-0.016842)"
fill="#000000" stroke="none">
<path d="M379 706 c-100 -27 -181 -95 -225 -190 -22 -46 -22 -51 -7 -55 10 -2
21 3 26 10 58 100 77 127 109 152 53 43 130 65 210 61 118 -5 206 -61 259
-166 20 -40 35 -58 48 -58 47 0 -36 137 -120 197 -79 56 -200 76 -300 49z"/>
<path d="M495 592 c-26 -17 -52 -25 -74 -23 -23 1 -41 -5 -57 -20 -15 -14 -29
-19 -44 -14 -16 5 -31 -3 -65 -34 l-45 -41 267 0 267 0 -30 23 c-17 12 -55 43
-85 68 -81 69 -87 71 -134 41z"/>
<path d="M173 395 c-56 -24 -68 -106 -20 -140 27 -19 93 -20 100 -1 4 11 -3
13 -32 9 -32 -4 -41 -1 -55 18 -35 50 -4 105 54 97 19 -3 30 0 30 8 0 17 -44
23 -77 9z"/>
<path d="M326 401 c-60 -12 -60 -60 -1 -88 49 -24 43 -48 -12 -47 -30 0 -40
-3 -36 -13 8 -21 77 -16 98 7 23 26 15 44 -36 76 -38 24 -41 28 -26 39 9 7 28
10 42 7 14 -2 25 0 25 6 0 14 -21 19 -54 13z"/>
<path d="M611 400 c-28 -7 -46 -45 -28 -61 7 -5 27 -19 45 -30 44 -26 36 -44
-17 -43 -54 1 -49 -20 7 -24 35 -3 43 1 58 23 16 24 16 27 -1 45 -10 11 -23
20 -30 20 -7 0 -19 8 -29 19 -14 15 -14 20 -3 29 7 6 23 9 35 5 12 -3 22 -1
22 5 0 13 -30 20 -59 12z"/>
<path d="M414 329 c3 -82 9 -89 81 -87 l50 1 0 79 c0 65 -3 78 -16 78 -13 0
-16 -11 -14 -60 2 -66 -9 -84 -47 -78 -21 3 -23 9 -26 71 -2 48 -7 67 -17 67
-10 0 -13 -17 -11 -71z"/>
<path d="M715 320 l-1 -80 38 0 c58 0 99 50 64 79 -8 6 -11 22 -8 37 6 32 -10
44 -58 44 l-35 0 0 -80z m68 46 c7 -18 -1 -26 -25 -26 -11 0 -18 7 -18 20 0
23 35 28 43 6z m7 -61 c18 -21 5 -45 -25 -45 -21 0 -25 5 -25 30 0 23 5 30 19
30 10 0 24 -7 31 -15z"/>
</g>
</svg>
